<svg xmlns="http://www.w3.org/2000/svg" viewBox="0 0 290 96"><defs><style>.cls-1{fill:#ec174c;}.cls-2{fill:#111010;}.cls-3{fill:#fff;}.cls-4{fill:#181717;}</style></defs><g id="Layer_2" data-name="Layer 2"><path class="cls-1" d="M0,24.72V70a2.06,2.06,0,0,0,1,1.79L40.27,94.46a2.05,2.05,0,0,0,2.06,0L81.57,71.81a2.06,2.06,0,0,0,1-1.79V24.72a2.06,2.06,0,0,0-1-1.79L42.33.28a2.05,2.05,0,0,0-2.06,0L1,22.93A2.06,2.06,0,0,0,0,24.72Z"/><path class="cls-2" d="M19.16,53.76h-4v-4h4Zm0-12.79h-4v4h4Zm0,18.34h-4v1.81h2.42L16.3,63.19l1.55.93,2.07-3.47-.76-.45Zm16.66-35-2.08-3.47L30.16,23l2.07,3.47ZM22.57,27.6l2.07,3.46L28.18,29,26.1,25.5ZM16.3,31.4l1.24,2.07H15.12v1.81h4v-.89l.76-.46-2.07-3.46Zm14,40.2,3.5,2.09,2.08-3.47-3.5-2.09ZM22.61,67,26,69l2.08-3.46-3.42-2.06Zm23-19.82L66.37,35.1l-2-3.49-21,12.25V19.54H41.49l-1.43-2.38-1.55.93.87,1.45h-.11V75h.11l-.87,1.46,1.55.93L41.49,75h1.82V50.87L64.35,63l2-3.5-21-12.12Z"/><path class="cls-3" d="M21.23,33.24a4.13,4.13,0,1,1-4.13-4.13A4.15,4.15,0,0,1,21.23,33.24Zm-4.13,24a4.14,4.14,0,1,0,4.13,4.13A4.13,4.13,0,0,0,17.1,57.21ZM65.5,37.38a4.14,4.14,0,1,0-4.13-4.14A4.14,4.14,0,0,0,65.5,37.38Zm0,19.83a4.14,4.14,0,1,0,4.13,4.13A4.14,4.14,0,0,0,65.5,57.21Zm-24.25-42a4.14,4.14,0,1,0,4.13,4.14A4.14,4.14,0,0,0,41.25,15.18Zm0,56.11a4.14,4.14,0,1,0,4.13,4.13A4.13,4.13,0,0,0,41.25,71.29Zm0-28.05a4.13,4.13,0,1,0,4.13,4.13A4.13,4.13,0,0,0,41.25,43.24Z"/><path class="cls-4" d="M118,52.34v-.62l10-11a.31.31,0,0,0,.09-.22v-.3a.34.34,0,0,0-.34-.34H123a.33.33,0,0,0-.25.11l-9.18,10h-.35V30.14a.34.34,0,0,0-.34-.34h-3.83a.34.34,0,0,0-.34.34V64.5a.34.34,0,0,0,.34.34h3.83a.34.34,0,0,0,.34-.34V54.14h.45l10.26,10.6a.36.36,0,0,0,.25.1h4.71a.34.34,0,0,0,.34-.34v-.29a.35.35,0,0,0-.1-.24Z"/><path class="cls-1" d="M147.27,36.66a3.78,3.78,0,1,0-3.77-3.78,3.69,3.69,0,0,0,1.1,2.68A3.65,3.65,0,0,0,147.27,36.66Z"/><path class="cls-4" d="M157.19,60.63h-7.61V40.15a.34.34,0,0,0-.34-.34H137.75a.34.34,0,0,0-.34.34v3.54a.34.34,0,0,0,.34.34h7.32v16.6h-8.21a.34.34,0,0,0-.34.34V64.5a.34.34,0,0,0,.34.34h20.33a.34.34,0,0,0,.34-.34V61A.34.34,0,0,0,157.19,60.63Z"/><path class="cls-4" d="M192.53,40.79a9.63,9.63,0,0,0-5.48-1.67A7,7,0,0,0,181,42.26a7.52,7.52,0,0,0-6-3.14c-3,0-5,.81-6,2.39V40.15a.34.34,0,0,0-.34-.34h-3.83a.34.34,0,0,0-.34.34V64.5a.34.34,0,0,0,.34.34h3.83a.34.34,0,0,0,.34-.34V47.71a5.56,5.56,0,0,1,1-3.26,4.48,4.48,0,0,1,3.19-1.12,5.85,5.85,0,0,1,2.77.68,3.45,3.45,0,0,1,1.71,2.82V64.5a.34.34,0,0,0,.34.34h3.83a.34.34,0,0,0,.34-.34V48a5.44,5.44,0,0,1,.92-3.49,4.65,4.65,0,0,1,3.1-1.19,5.34,5.34,0,0,1,3,.86,4.68,4.68,0,0,1,1.49,2.93V64.6a.35.35,0,0,0,.34.34h3.83a.34.34,0,0,0,.34-.34V45.84A7.22,7.22,0,0,0,192.53,40.79Z"/><path class="cls-4" d="M224,43.07a12.06,12.06,0,0,0-3.69-2.81A11.83,11.83,0,0,0,215,39.12a12.62,12.62,0,0,0-4.87.94,12.14,12.14,0,0,0-3.91,2.57,11.76,11.76,0,0,0-2.61,3.92,12.78,12.78,0,0,0-.93,4.89v1.18a14.4,14.4,0,0,0,.91,5.23,12.41,12.41,0,0,0,2.52,4.09A11.22,11.22,0,0,0,210,64.59a12.8,12.8,0,0,0,4.92.94,12.3,12.3,0,0,0,7.69-2.21,11.12,11.12,0,0,0,2.9-3.3.36.36,0,0,0,0-.29.33.33,0,0,0-.2-.2l-3.59-1.3a.34.34,0,0,0-.4.14,5.42,5.42,0,0,1-1.35,1.44,6.74,6.74,0,0,1-2.08,1,9.88,9.88,0,0,1-2.89.38,7.48,7.48,0,0,1-5.65-2.11,8.2,8.2,0,0,1-2.14-5.27h19.28a.34.34,0,0,0,.34-.34V50.36a14,14,0,0,0-.69-3.64A11,11,0,0,0,224,43.07Zm-16.68,6.56a7.76,7.76,0,0,1,.77-2.23,7.36,7.36,0,0,1,1.64-2.08,7.28,7.28,0,0,1,2.35-1.39,8.28,8.28,0,0,1,5.56,0,7.68,7.68,0,0,1,2.3,1.31,6.47,6.47,0,0,1,1.63,2.06,6.64,6.64,0,0,1,.7,2.35Z"/><path class="cls-4" d="M249.37,39.12a8.34,8.34,0,0,0-4.09,1,6.64,6.64,0,0,0-2.7,2.93h0v-2.9a.34.34,0,0,0-.34-.34h-8.84a.34.34,0,0,0-.34.34v3.54a.34.34,0,0,0,.34.34H238v16.6h-5.26a.34.34,0,0,0-.34.34V64.5a.34.34,0,0,0,.34.34h15.61a.34.34,0,0,0,.34-.34V61a.34.34,0,0,0-.34-.34h-5.84v-10a12,12,0,0,1,.33-2.87,6.66,6.66,0,0,1,1-2.29A4.8,4.8,0,0,1,245.63,44a5.12,5.12,0,0,1,2.47-.55,5.34,5.34,0,0,1,3.74,1.4c1,.93,1.51,2.49,1.51,4.64a.37.37,0,0,0,.12.26.39.39,0,0,0,.27.08l4-.59a.34.34,0,0,0,.29-.35c-.1-3.15-.94-5.58-2.5-7.24A8.12,8.12,0,0,0,249.37,39.12Z"/><path class="cls-4" d="M289.53,60.63H288.3c-.49,0-1-.14-1-1.14V40.15a.34.34,0,0,0-.34-.34h-3.83a.34.34,0,0,0-.34.34v3.49h0a8.1,8.1,0,0,0-3.26-3.37,9.73,9.73,0,0,0-4.7-1.15,11.93,11.93,0,0,0-4.5.86,11,11,0,0,0-3.72,2.51,11.88,11.88,0,0,0-2.51,4,15.17,15.17,0,0,0-.9,5.42v.79a15.34,15.34,0,0,0,.9,5.47,11.79,11.79,0,0,0,2.51,4,10.48,10.48,0,0,0,3.72,2.48,12.41,12.41,0,0,0,4.6.84,9.22,9.22,0,0,0,4.56-1.22,8.38,8.38,0,0,0,3.31-3.59h0A4.08,4.08,0,0,0,284,63.66a4,4,0,0,0,3,1.18h2.61a.34.34,0,0,0,.34-.34V61A.34.34,0,0,0,289.53,60.63ZM282.8,52v.59a10.39,10.39,0,0,1-.57,3.54,8.4,8.4,0,0,1-1.55,2.72,6.88,6.88,0,0,1-2.36,1.73,7.56,7.56,0,0,1-3,.61A7.09,7.09,0,0,1,269.87,59a8.85,8.85,0,0,1-2.1-6.27v-.79a10.51,10.51,0,0,1,.57-3.49,7.89,7.89,0,0,1,1.58-2.68A7.22,7.22,0,0,1,272.29,44a7.34,7.34,0,0,1,3-.6,7,7,0,0,1,3,.63,7.21,7.21,0,0,1,2.4,1.76,8,8,0,0,1,1.57,2.71A10.26,10.26,0,0,1,282.8,52Z"/></g></svg>